# xmcd
#
# Track frame offsets: 
#        150
#        14371
#        37227
#        58635
#        74219
#        88438
#        105550
#        125407
#        141534
#        156507
#
# Disc length: 2341 seconds
#
# Revision: 4
# Processed by: cddbd v1.5.2PL0 Copyright (c) Steve Scherf et al.
# Submitted via: ExactAudioCopy v1.0b1
#
DISCID=a009230a
DTITLE=Chris LeDoux - Powder River
DYEAR=1989
DGENRE=Country
TTITLE0=Sons Of The Pioneers
TTITLE1=Johnson County War
TTITLE2=Homegrown Western Saturday Night
TTITLE3=Rainbow Rider
TTITLE4=Hard Times
TTITLE5=The Lady Is Dancing With Me
TTITLE6=Song Of The Yukon Rose
TTITLE7=Blue Bonnet Blues
TTITLE8=I've Got To Be A Rodeo Man
TTITLE9=Lone Ranger (William Tell Overture)
EXTD=
EXTT0=
EXTT1=
EXTT2=
EXTT3=
EXTT4=
EXTT5=
EXTT6=
EXTT7=
EXTT8=
EXTT9=
PLAYORDER=
